# xmcd
#
# Track frame offsets:
#	150
#	14540
#	29547
#	44140
#	56740
#	71592
#	82775
#	100390
#	117630
#	134975
#	157702
#	173950
#	192315
#	207177
#
# Disc length: 3039 seconds
#
# Revision: 1
# Processed by: cddbd v1.4PL0 Copyright (c) Steve Scherf et al.
# Submitted via: CDmax 1.8
#
DISCID=cf0bdd0e
DTITLE=Bastard Sons of Johnny Cash - Walk Alone
DYEAR=2001
DGENRE=Country
TTITLE0=Texas Sun
TTITLE1=Blade
TTITLE2=Seven Steps
TTITLE3=Interstate Cannonball
TTITLE4=Walk Alone
TTITLE5=Truckstop In La Grange
TTITLE6=440 Horses
TTITLE7=Lonesome Sky
TTITLE8=Trains Gonna Roll
TTITLE9=Memphis Woman
TTITLE10=Silver Wings
TTITLE11=Crying Over You
TTITLE12=Nowhere Town
TTITLE13=Spanish Eyes
EXTD=
EXTT0=
EXTT1=
EXTT2=
EXTT3=
EXTT4=
EXTT5=
EXTT6=
EXTT7=
EXTT8=
EXTT9=
EXTT10=
EXTT11=
EXTT12=
EXTT13=
PLAYORDER=
